<?xml version="1.0" encoding="UTF-8"?>
<svg id="Layer_2" data-name="Layer 2" xmlns="http://www.w3.org/2000/svg" viewBox="0 0 165.66 383.32">
  <defs>
    <style>
      .cls-1, .cls-2, .cls-3, .cls-4 {
        stroke: #231f20;
        stroke-miterlimit: 10;
      }

      .cls-1, .cls-2, .cls-4 {
        fill: none;
      }

      .cls-2, .cls-3 {
        stroke-width: .94px;
      }

      .cls-3 {
        fill: #fff;
      }

      .cls-4 {
        stroke-width: .96px;
      }
    </style>
  </defs>
  <g id="Layer_1-2" data-name="Layer 1">
    <path class="cls-1" d="m118.22,7.15s-15.96,106.48,0,126.24c0,0-14.67,99-3.55,113.47,0,0-16.31,110.48-.31,129.52,0,0-44.19,14.48-56.38,0,0,0,11.43-119.62,0-123.43,0,0,18.29-102.86,0-119.62,0,0,13.71-106.86,0-126.19,0,0,41.23-14.95,60.23,0Z"/>
    <path class="cls-1" d="m57.99,133.34s35.89,16.86,60.23.05"/>
    <path class="cls-4" d="m62.56,140.85s32.77,16.86,54.98.05"/>
    <path class="cls-4" d="m57.99,252.96s52.29,5.21,56.69-6.1"/>
    <path class="cls-2" d="m58.5,249.31s50.21,5.21,54.43-6.1"/>
    <path class="cls-2" d="m126.18,133.34s8.76-47.62,38.86-49.52c0,0-13.33,49.14-38.86,49.52Z"/>
    <path class="cls-2" d="m50.03,248.64S2.41,239.88.51,209.79c0,0,49.14,13.33,49.52,38.86Z"/>
    <line class="cls-3" x1="126.18" y1="133.34" x2="144.59" y2="109.72"/>
    <line class="cls-3" x1="50.03" y1="248.64" x2="28.28" y2="231.37"/>
  </g>
</svg>