<?xml version="1.0" encoding="UTF-8"?>
<svg id="Layer_2" data-name="Layer 2" xmlns="http://www.w3.org/2000/svg" viewBox="0 0 29.59 30.96">
  <defs>
    <style>
      .cls-1 {
        fill: none;
        stroke: #231f20;
        stroke-miterlimit: 10;
      }
    </style>
  </defs>
  <g id="Layer_1-2" data-name="Layer 1">
    <line class="cls-1" x1="22.93" y1="19.27" x2="22.93" y2="9.18"/>
    <circle class="cls-1" cx="3.75" cy="23.98" r=".33"/>
    <circle class="cls-1" cx="6.01" cy="23.98" r=".33"/>
    <polyline class="cls-1" points=".5 16.47 8.34 16.47 8.34 25.89 .5 25.89 .5 23.49"/>
    <path class="cls-1" d="m8.34,18.25s3.09-.65,7.15,2.52h4.88s1.83,1.18-.37,2.44c0,0-5.57-.16-5.81.77"/>
    <path class="cls-1" d="m17.2,23.24s-.17,2,1.21,2.08,5.65-1.87,6.42-2.64,2.52.93,1.71,1.63-5.36,6.54-7.27,6.14-7.8-6.14-7.8-6.14l-3.13.2"/>
    <path class="cls-1" d="m25.37,8.91c4,2.93-2.44,6.03-2.44,1.18,0,4.86-6.44,1.76-2.44-1.18-4,2.93-5.59-4.03-.6-2.64-4.98-1.39-.53-6.98,1.69-2.12-2.22-4.86,4.93-4.86,2.71,0,2.22-4.86,6.67.73,1.69,2.12,4.98-1.39,3.39,5.58-.6,2.64Z"/>
    <circle class="cls-1" cx="22.93" cy="7.23" r="1.33"/>
  </g>
</svg>