<?xml version="1.0" encoding="UTF-8"?>
<svg id="Layer_2" data-name="Layer 2" xmlns="http://www.w3.org/2000/svg" viewBox="0 0 94.5 213.58">
  <defs>
    <style>
      .cls-1, .cls-2, .cls-3 {
        fill: none;
        stroke: #231f20;
        stroke-miterlimit: 10;
      }

      .cls-2 {
        stroke-width: .62px;
      }

      .cls-3 {
        stroke-width: 1.06px;
      }
    </style>
  </defs>
  <g id="lavendel">
    <ellipse class="cls-1" cx="27.68" cy="11.05" rx="9.52" ry="4.76" transform="translate(.3 22.81) rotate(-45)"/>
    <ellipse class="cls-1" cx="10.27" cy="18.75" rx="9.52" ry="4.76"/>
    <ellipse class="cls-1" cx="27.44" cy="11.04" rx="9.52" ry="4.76" transform="translate(.23 22.64) rotate(-45)"/>
    <ellipse class="cls-1" cx="10.02" cy="18.75" rx="9.52" ry="4.76"/>
    <ellipse class="cls-1" cx="33.83" cy="21.05" rx="9.52" ry="4.76" transform="translate(-4.98 30.08) rotate(-45)"/>
    <ellipse class="cls-1" cx="16.41" cy="28.75" rx="9.52" ry="4.76"/>
    <ellipse class="cls-1" cx="37.39" cy="31.05" rx="9.52" ry="4.76" transform="translate(-11 35.53) rotate(-45)"/>
    <ellipse class="cls-1" cx="19.97" cy="38.75" rx="9.52" ry="4.76"/>
    <ellipse class="cls-1" cx="41.45" cy="41.05" rx="9.52" ry="4.76" transform="translate(-16.89 41.33) rotate(-45)"/>
    <ellipse class="cls-1" cx="24.03" cy="48.75" rx="9.52" ry="4.76"/>
    <ellipse class="cls-1" cx="43.26" cy="53.71" rx="9.52" ry="4.76" transform="translate(-25.31 46.32) rotate(-45)"/>
    <ellipse class="cls-1" cx="25.84" cy="61.42" rx="9.52" ry="4.76"/>
    <ellipse class="cls-1" cx="47.91" cy="63.71" rx="9.52" ry="4.76" transform="translate(-31.02 52.54) rotate(-45)"/>
    <ellipse class="cls-1" cx="30.5" cy="71.42" rx="9.52" ry="4.76"/>
    <ellipse class="cls-1" cx="51.15" cy="75.9" rx="9.52" ry="4.76" transform="translate(-38.69 58.4) rotate(-45)"/>
    <ellipse class="cls-1" cx="33.73" cy="83.61" rx="9.52" ry="4.76"/>
    <ellipse class="cls-1" cx="13.81" cy="8.4" rx="4.76" ry="9.52" transform="translate(-2.16 10.89) rotate(-40.17)"/>
    <path class="cls-2" d="m19.96,15.68s63.66,166.12,52.39,197.74"/>
    <path class="cls-3" d="m44.87,85.17s35.01,107.75,28.81,128.25"/>
    <path class="cls-3" d="m53.92,114.55s21.93-15.92,28.79-13.13c0,0-9.83,17.11-28.79,13.13Z"/>
    <path class="cls-3" d="m53.92,114.55s-17.69,2.11-21.75,14.3c0,0,20.9-3.71,21.75-14.3Z"/>
    <path class="cls-3" d="m62.29,144.17s23.72-5.41,31.09,1.19c0,0-21.29,4.98-31.09-1.19Z"/>
    <path class="cls-3" d="m62.29,144.17s-11.06-6.94-24.9-3.63c0,0,18.45,10.32,24.9,3.63Z"/>
  </g>
</svg>