<?xml version="1.0" encoding="UTF-8"?>
<svg id="Layer_2" data-name="Layer 2" xmlns="http://www.w3.org/2000/svg" viewBox="0 0 17.94 29.92">
  <defs>
    <style>
      .cls-1, .cls-2, .cls-3 {
        stroke: #231f20;
        stroke-miterlimit: 10;
      }

      .cls-1, .cls-3 {
        fill: none;
      }

      .cls-2 {
        fill: #231f20;
      }

      .cls-2, .cls-3 {
        stroke-width: .75px;
      }
    </style>
  </defs>
  <g id="Layer_1-2" data-name="Layer 1">
    <path class="cls-1" d="m16.82,18.72s-1.4,10.7-2.29,10.7H3.61s-.38.41-2.22-10.7c0,0-1.71-.19-.38-2.73h15.81s1.4,1.78,0,2.41-15.21.38-15.21.38l15.21-.07Z"/>
    <path class="cls-3" d="m15.82.46c-8.21,2.67-6.57,9.01-5.83,10.98-.27.68-1.16.54-1.96-.26C9.11,4.16,1.34,3.65,1.34,3.65c-.95,6.51,3.47,7.96,5.52,8.28.52.98,1.95,2.03,1.18,3.73h1.98s.13-1.96.61-3.74C19.61,9.58,15.82.46,15.82.46Z"/>
    <line class="cls-2" x1="8.03" y1="11.18" x2="6.86" y2="11.94"/>
    <line class="cls-2" x1="9.99" y1="11.44" x2="10.64" y2="11.93"/>
  </g>
</svg>