<?xml version="1.0" encoding="UTF-8"?>
<svg id="Layer_2" data-name="Layer 2" xmlns="http://www.w3.org/2000/svg" viewBox="0 0 193.61 342.92">
  <defs>
    <style>
      .cls-1, .cls-2, .cls-3, .cls-4 {
        fill: none;
        stroke: #231f20;
        stroke-miterlimit: 10;
      }

      .cls-2 {
        stroke-width: .86px;
      }

      .cls-3 {
        stroke-width: .99px;
      }

      .cls-4 {
        stroke-width: .87px;
      }
    </style>
  </defs>
  <g id="Layer_2-2" data-name="Layer 2">
    <circle class="cls-1" cx="97.11" cy="89.82" r="57.14"/>
    <path class="cls-1" d="m125.73,40.44s14.49-24.01,27.21-23.82c0,0-2.78,24.14-13.51,34.96"/>
    <path class="cls-1" d="m146.89,64.05s23.6-15.15,34.93-9.36c0,0-13.15,20.43-27.56,25.4"/>
    <path class="cls-1" d="m146.67,40.2s23.52-15.87,27.24-12.74c0,0-3.75,21.68-12.57,29.24"/>
    <path class="cls-1" d="m153.35,80.89s27.86-3.23,35.49,6.94c0,0-20.79,12.57-35.92,10.7"/>
    <path class="cls-1" d="m147.63,112.07s26.42,9.4,28.78,21.9c0,0-24.21,2.1-36.95-6.25"/>
    <path class="cls-1" d="m166.36,97.3s26.94,8.89,26.75,13.75c0,0-19.44,10.3-30.82,7.95"/>
    <path class="cls-1" d="m139.65,128.09s20.01,19.65,16.89,31.98c0,0-22.84-8.29-30.89-21.23"/>
    <path class="cls-1" d="m111.79,143.22s9.28,26.47,1.04,36.15c0,0-16.84-17.52-18.34-32.68"/>
    <path class="cls-1" d="m135.05,148.53s10.01,26.55,6.1,29.45c0,0-20.23-8.66-25.54-18.99"/>
    <path class="cls-3" d="m67.53,137.78s-14.37,23.67-27,23.47c0,0,2.73-23.81,13.38-34.47"/>
    <path class="cls-3" d="m46.48,114.46s-23.43,14.91-34.69,9.2c0,0,13.04-20.14,27.35-25.03"/>
    <path class="cls-3" d="m46.72,137.99s-23.35,15.63-27.05,12.54c0,0,3.7-21.38,12.45-28.83"/>
    <path class="cls-3" d="m40.03,97.85s-27.68,3.15-35.27-6.89c0,0,20.64-12.37,35.67-10.52"/>
    <path class="cls-3" d="m45.68,67.09s-26.26-9.31-28.62-21.64c0,0,24.05-2.04,36.72,6.21"/>
    <path class="cls-3" d="m27.09,81.63S.31,72.83.5,68.03c0,0,19.3-10.14,30.61-7.8"/>
    <path class="cls-3" d="m53.59,51.29s-19.9-19.41-16.82-31.57c0,0,22.7,8.2,30.71,20.98"/>
    <path class="cls-3" d="m81.25,36.4s-9.25-26.12-1.07-35.66c0,0,16.75,17.3,18.27,32.26"/>
    <path class="cls-3" d="m58.14,31.14s-9.97-26.2-6.09-29.06c0,0,20.11,8.57,25.4,18.76"/>
    <path class="cls-2" d="m95.78,149.55s-4.86,23.76-15.27,27.29c0,0-4.72-20.47.89-32.4"/>
    <path class="cls-2" d="m78.78,155.82s-14.57,19.74-18.51,18.27c0,0-3.22-18.75,1.78-27.46"/>
    <path class="cls-4" d="m97.78,32.04s2.22-24.2,12.27-28.91c0,0,7.02,19.82,2.72,32.33"/>
    <path class="cls-4" d="m114.13,23.85s12.41-21.33,16.53-20.32c0,0,5.32,18.28,1.28,27.53"/>
    <line class="cls-1" x1="95.78" y1="146.63" x2="95.78" y2="342.92"/>
    <path class="cls-1" d="m95.78,225.65s26.21-35.81,43.55-25.52c0,0-23.31,28.57-43.55,25.52Z"/>
    <path class="cls-1" d="m94.16,225.96s-43.71-7.68-42.15-27.79c0,0,35.93,8.28,42.15,27.79Z"/>
  </g>
</svg>